<?xml version="1.0" standalone="no"?>
<!DOCTYPE svg PUBLIC "-//W3C//DTD SVG 20010904//EN"
 "http://www.w3.org/TR/2001/REC-SVG-20010904/DTD/svg10.dtd">
<svg version="1.0" xmlns="http://www.w3.org/2000/svg"
 width="512.000000pt" height="272.000000pt" viewBox="0 0 512.000000 272.000000"
 preserveAspectRatio="xMidYMid meet">

<g transform="translate(0.000000,272.000000) scale(0.100000,-0.100000)"
fill="#000000" stroke="none">
<path d="M0 1360 l0 -1360 2560 0 2560 0 0 1360 0 1360 -2560 0 -2560 0 0
-1360z m3954 564 c210 -51 385 -226 440 -441 21 -79 21 -227 0 -306 -55 -214
-227 -386 -441 -441 -79 -21 -227 -21 -306 0 -245 63 -429 274 -455 520 -47
436 336 772 762 668z m-2455 -123 l121 -140 0 -60 0 -61 181 0 181 0 40 -39
39 -40 -3 -185 -3 -186 -33 -32 -32 -33 -185 -3 -185 -3 0 -55 c0 -45 -4 -59
-25 -79 l-24 -25 -331 0 -331 0 -24 25 -25 24 0 491 0 491 25 24 24 25 235 0
235 0 120 -139z"/>
<path d="M3735 1809 c-240 -28 -416 -231 -416 -479 0 -362 371 -591 697 -431
235 117 333 399 220 637 -92 194 -284 298 -501 273z m-125 -114 c0 -8 5 -15
10 -15 6 0 13 7 16 15 4 8 12 15 20 15 10 0 14 -14 14 -50 0 -38 -4 -50 -15
-50 -8 0 -15 7 -15 15 0 8 -7 15 -15 15 -8 0 -15 -7 -15 -15 0 -8 -9 -15 -20
-15 -17 0 -20 7 -20 50 0 43 3 50 20 50 11 0 20 -7 20 -15z m180 0 c0 -8 -7
-15 -15 -15 -10 0 -15 -11 -15 -35 0 -24 -5 -35 -15 -35 -10 0 -15 11 -15 35
0 24 -5 35 -15 35 -8 0 -15 7 -15 15 0 11 12 15 45 15 33 0 45 -4 45 -15z m68
3 c9 -9 15 -9 24 0 7 7 20 12 30 12 15 0 18 -9 18 -50 0 -43 -3 -50 -20 -50
-14 0 -20 7 -20 23 0 18 -2 19 -10 7 -9 -13 -11 -13 -20 0 -8 12 -10 11 -10
-7 0 -16 -6 -23 -20 -23 -17 0 -20 7 -20 50 0 41 3 50 18 50 10 0 23 -5 30
-12z m122 -18 c0 -25 4 -30 25 -30 19 0 25 -5 25 -21 0 -18 -5 -20 -42 -17
l-43 3 -3 48 c-3 42 -1 47 17 47 17 0 21 -6 21 -30z m100 -137 c0 -46 -49
-533 -54 -541 -3 -5 -55 -19 -116 -32 l-110 -23 -110 23 c-61 13 -113 27 -116
32 -5 8 -54 495 -54 541 0 16 20 17 280 17 260 0 280 -1 280 -17z"/>
<path d="M3624 1433 c3 -16 8 -55 11 -88 11 -102 1 -95 132 -95 101 0 114 -2
109 -16 -3 -9 -6 -30 -6 -48 0 -25 -6 -35 -25 -44 -49 -23 -112 -5 -117 32 -2
16 -11 22 -39 24 l-36 3 10 -50 c9 -50 10 -50 73 -75 l64 -26 64 26 63 25 12
100 c6 55 11 106 11 114 0 12 -21 15 -119 15 -121 0 -131 3 -131 41 0 5 60 9
135 9 l135 0 0 24 c0 13 3 31 6 40 5 14 -14 16 -176 16 l-182 0 6 -27z"/>
<path d="M912 1888 c-17 -17 -17 -959 0 -976 17 -17 639 -17 656 0 7 7 12 34
12 60 l0 48 -181 0 -181 0 -39 39 -39 39 0 182 0 182 39 39 39 39 181 0 181 0
0 40 0 40 -95 0 c-88 0 -98 2 -120 25 -24 23 -25 30 -25 140 l0 115 -208 0
c-148 0 -211 -3 -220 -12z"/>
<path d="M1380 1776 c0 -68 4 -97 14 -105 9 -8 43 -11 91 -9 l78 3 -87 103
c-48 56 -89 102 -92 102 -2 0 -4 -42 -4 -94z"/>
<path d="M1205 1475 c-25 -24 -25 -27 -25 -195 0 -168 0 -171 25 -195 l24 -25
371 0 371 0 24 25 c25 24 25 27 25 195 0 168 0 171 -25 195 l-24 25 -371 0
-371 0 -24 -25z m230 -80 c16 -15 25 -36 25 -55 0 -51 -38 -80 -105 -80 l-55
0 0 -60 c0 -53 -2 -60 -20 -60 -19 0 -20 7 -20 140 l0 140 75 0 c67 0 79 -3
100 -25z m240 0 c14 -13 25 -31 25 -40 0 -22 -33 -18 -48 6 -10 16 -21 19 -54
17 -48 -3 -70 -27 -52 -55 7 -12 29 -20 64 -23 60 -7 90 -33 90 -82 0 -47 -39
-78 -100 -78 -41 0 -56 5 -75 25 -14 13 -25 31 -25 40 0 22 33 18 48 -6 10
-16 21 -19 54 -17 48 3 70 27 52 56 -7 11 -29 19 -64 22 -60 7 -90 33 -90 82
0 47 39 78 100 78 41 0 56 -5 75 -25z m240 0 c23 -22 25 -32 25 -115 0 -83 -2
-93 -25 -115 -21 -22 -33 -25 -100 -25 l-75 0 0 140 0 140 75 0 c67 0 79 -3
100 -25z"/>
<path d="M1300 1340 l0 -41 51 3 c96 6 96 70 0 76 l-51 3 0 -41z"/>
<path d="M1780 1280 l0 -100 48 0 c26 0 53 5 60 12 7 7 12 42 12 88 0 46 -5
81 -12 88 -7 7 -34 12 -60 12 l-48 0 0 -100z"/>
</g>
</svg>
